<svg id="Layer_1" data-name="Layer 1" xmlns="http://www.w3.org/2000/svg" viewBox="0 0 876.03 92.08">
    <defs>
        <style>
            .cls-1{fill:#429544;}.cls-1,.cls-2,.cls-4,.cls-5{fill-rule:evenodd;}.cls-2{fill:#272727;}.cls-3,.cls-4,.cls-5{fill:#101017;stroke-linejoin:round;}.cls-3{stroke:#439544;}.cls-4{stroke:#231f20;}.cls-4,.cls-5{stroke-width:0.25px;}.cls-5{stroke:#fff;}</style>
    </defs>
    <!-- <path class="cls-1" d="M135.81,508h19.68l-25.2,45.16H110.61Z"
        transform="translate(-110.61 -507.21)" />
    <path id="Rectangle_1_copy" data-name="Rectangle 1 copy" class="cls-1"
        d="M183.83,553.19h19.68L178.31,508H158.63Z" transform="translate(-110.61 -507.21)" /> -->
    <g id="Layer_1-2" data-name="Layer_1">
        <g id="_2288691476192" data-name=" 2288691476192">
            <path class="cls-1"
                d="M361.89,561.79c-7.45,30-46.18,14.93-36.11-19.26C333.11,517.62,371.18,524.39,361.89,561.79Zm-41.32-48.35c-40.11,28.09-22,94.36,34.35,84.94,24.56-4.11,39.77-31.6,34.3-55.84C381.82,509.79,343.37,499.1,320.57,513.44Z"
                transform="translate(-110.61 -507.21)" />
            <path class="cls-2"
                d="M680.29,528.32c28.87-5.47,32.21,45.4,8.2,48.38C655.56,580.79,659.65,532.23,680.29,528.32Zm-4.83-20.12c-59.73,7.85-37.61,99.81,19.34,90.18C756.31,588,734.11,498.72,675.46,508.2Z"
                transform="translate(-110.61 -507.21)" />
            <path class="cls-1"
                d="M403,530.29c24.49,0,50.45-4.78,50.45,22.09,0,16.61-9,22.12-24.13,22.1l-.82-31.77-24.06.08-.62,54.61c100.44,14.38,91.81-89.2,32.08-89.2H403Z"
                transform="translate(-110.61 -507.21)" />
            <path class="cls-2"
                d="M567.17,530.29c21,1.32,37.66-4,36.92,6,.68,10-25.9,5.81-35.48,6.53l-.5,22.17c36.85.13,34.15-4.27,34.15,33.82h24.13c0-27.08,3.47-33.42-9.15-44.19,28.3-22.58,8.6-46.39-12.78-46.39H567.17Z"
                transform="translate(-110.61 -507.21)" />
            <path class="cls-1"
                d="M288.74,598.29V575.93c-47-4.21-43-45.64,1.44-45.64V508.2c-27.62,0-58.89,4.1-59.39,44.16C230.26,594.07,272.15,599,288.74,598.29Z"
                transform="translate(-110.61 -507.21)" />
            <polygon class="cls-2"
                points="737.37 91.57 795.23 90.75 795.78 68.65 761.34 68.82 761 57.67 795.23 57.61 795.78 35.51 737.37 35.37 737.37 91.57" />
            <polygon class="cls-1"
                points="382.93 90.88 440.79 90.75 441.34 68.65 406.92 68.66 407.18 57.73 440.79 57.61 441.34 35.51 382.93 34.13 382.93 90.88" />
            <path class="cls-2"
                d="M774.62,541.08l25.6,57.43s36.37-91,36.37-90.31l-23.57.11-12.83,30.8L786.88,508.2Z"
                transform="translate(-110.61 -507.21)" />
            <path class="cls-2"
                d="M769.05,598.51l14-29.39-28.5-60.92-25.42,0C729.26,509.05,769.05,598.51,769.05,598.51Z"
                transform="translate(-110.61 -507.21)" />
            <polygon class="cls-1"
                points="382.93 23.08 442.15 23.08 442.15 0.99 382.93 0.99 382.93 23.08" />
            <polygon class="cls-2"
                points="738.37 23.08 797.6 23.08 797.6 0.99 738.37 0.99 738.37 23.08" />
        </g>
    </g>
    <!-- <path id="Rectangle_1_copy_2" data-name="Rectangle 1 copy 2" class="cls-1"
        d="M178.31,598H158.63l25.2-45.16h19.68Z" transform="translate(-110.61 -507.21)" />
    <path id="Rectangle_1_copy_2-2" data-name="Rectangle 1 copy 2-2" class="cls-1"
        d="M135.9,598h19.68l-25.2-45.16H110.7Z" transform="translate(-110.61 -507.21)" />
    <ellipse class="cls-3" cx="47.34" cy="50.63" rx="10.51" ry="10.47" />
    <path id="Rounded_Rectangle_2" data-name="Rounded Rectangle 2" class="cls-4"
    d="M123.32,521.68l4-7.23c.44-.79,1.29-.81,1.89,0l10.6,13.8a2.85,2.85,0,0,1,.29,2.86l-4,7.22c-.44.8-1.29.81-1.89,0l-10.6-13.8A2.83,2.83,0,0,1,123.32,521.68Z"
        transform="translate(-110.61 -507.21)" />
    <path id="Rounded_Rectangle_2-2" data-name="Rounded Rectangle 2-2" class="cls-4"
    d="M191,521.68l-4-7.23c-.44-.79-1.29-.81-1.89,0l-10.6,13.8a2.85,2.85,0,0,0-.29,2.86l4,7.22c.44.8,1.29.81,1.89,0l10.6-13.8A2.85,2.85,0,0,0,191,521.68Z"
        transform="translate(-110.61 -507.21)" />
    <path id="Rounded_Rectangle_1_copy" data-name="Rounded Rectangle 1 copy" class="cls-5"
    d="M131.8,525.3a1.57,1.57,0,0,1,2.2.27h0L188,594.43a1.55,1.55,0,0,1-.25,2.19,1.57,1.57,0,0,1-2.2-.25v0l-54-68.86A1.56,1.56,0,0,1,131.8,525.3Z"
        transform="translate(-110.61 -507.21)" />
    <path id="Rounded_Rectangle_1" data-name="Rounded Rectangle 1" class="cls-5"
    d="M183.49,525.18a1.55,1.55,0,0,1,.28,2.19h0l-53.64,69.09a1.56,1.56,0,0,1-2.47-1.9l53.64-69.1a1.56,1.56,0,0,1,2.19-.28Z"
        transform="translate(-110.61 -507.21)" /> -->
    <path class="cls-2"
        d="M922.5,530.29c21,1.32,37.66-4,36.92,6,.68,10-25.9,5.81-35.48,6.53l-.5,22.17c36.86.13,34.16-4.27,34.16,33.82h24.13c0-27.08,3.46-33.42-9.15-44.19,28.3-22.58,8.6-46.39-12.79-46.39H922.5Z"
        transform="translate(-110.61 -507.21)" />
</svg>